<svg xmlns="http://www.w3.org/2000/svg" viewBox="0 0 72.44 20.53"><defs><style>.cls-1{fill:#fff;}</style></defs><title>Blackcatlogoblanc</title><g id="Calque_2" data-name="Calque 2"><g id="Calque_1-2" data-name="Calque 1"><path class="cls-1" d="M8.8,14.34H9a1.79,1.79,0,0,0,.42-.05,1,1,0,0,0,.31-.16.67.67,0,0,0,.27-.57.68.68,0,0,0-.33-.64,1.08,1.08,0,0,0-.58-.15H8.8v1.55Z"/><path class="cls-1" d="M9,16.17H8.8v1.74H9a1.16,1.16,0,0,0,.77-.24.81.81,0,0,0,.29-.65.76.76,0,0,0-.29-.63A1.24,1.24,0,0,0,9,16.17Z"/><path class="cls-1" d="M24.77,15.85l0-.12h0s0-.06,0-.15-.06-.43-.13-1a.69.69,0,0,0,0-.13.78.78,0,0,0,0-.14,1.68,1.68,0,0,0,0-.2h0c0-.08,0-.14,0-.24L24.43,13v0a1.41,1.41,0,0,1,0,.28c0,.1,0,.21,0,.33s-.05.41-.06.51,0,.07,0,.1a.2.2,0,0,0,0,.07l-.18,1.09-.2,1.07,0,.18,0,.17h1.09l0-.12Z"/><path class="cls-1" d="M0,0V15.44l5.72.28v4.65H9.83a3.5,3.5,0,0,0,2.42-.84,2.88,2.88,0,0,0,1-2.25,2.65,2.65,0,0,0-.25-1.2l1.24.06v4.23h5.51V17.2H17.77v-.89l3.18.16-.83,3.28-.15.62h3.72l.07-.41.14-.74h.9l.12.73.07.42H28.7l-.14-.61-.66-3,1.22.06a4.52,4.52,0,0,0,1.22,2.39,4.12,4.12,0,0,0,3.05,1.27,4.82,4.82,0,0,0,1.71-.36l.31-.12,0-.32.14-2.54,1.11,0v3.13h3.59v-.51l0-1.52.7,1.72.13.31H45l-.35-.72-1-2.07,1.51.07a4.38,4.38,0,0,0,1,1.61,4.12,4.12,0,0,0,3,1.27,4.91,4.91,0,0,0,1.72-.36l.3-.12,0-.32.1-1.77,1,.05-.44,1.74-.16.62h3.72l.08-.41.13-.74h.9l.12.73.07.42H60.4l-.14-.61L60,18.38l1.72.09v1.9h3.57V18.64l7.2.36V3.56ZM6.07,4.77h.55v-1l1-.6V4.77h.76V5.6H7.61V8.05a1.59,1.59,0,0,0,0,.37.2.2,0,0,0,.08.08.85.85,0,0,0,.5,0l.12,0,.15.9-.12,0a3.25,3.25,0,0,1-.59.07,1.36,1.36,0,0,1-.69-.15.84.84,0,0,1-.37-.4A2.62,2.62,0,0,1,6.62,8V5.6H6.07Zm5.84,14.38a3,3,0,0,1-2.08.72H6.22v-9h3a3.72,3.72,0,0,1,2.49.71,2.35,2.35,0,0,1,.82,1.86,1.68,1.68,0,0,1-1.78,1.84,2.45,2.45,0,0,1,1.49.63l.14.19a2.08,2.08,0,0,1,.33,1.23A2.38,2.38,0,0,1,11.91,19.15Zm.95-9.72h-1V6.51a1.08,1.08,0,0,0-.2-.73.78.78,0,0,0-.6-.22,1,1,0,0,0-.56.16.79.79,0,0,0-.37.4,2,2,0,0,0-.11.77V9.43H9V3.09h1v2a1.74,1.74,0,0,1,1.19-.43,2,2,0,0,1,.91.2,1.23,1.23,0,0,1,.57.6,2.39,2.39,0,0,1,.17,1Zm6.35,8.27v2.17H14.7v-9h2.57V17.7ZM18,8a2,2,0,0,1-.72,1.12,2.2,2.2,0,0,1-1.34.4,2.16,2.16,0,0,1-1.63-.64,2.45,2.45,0,0,1-.6-1.76,2.57,2.57,0,0,1,.61-1.81,2.08,2.08,0,0,1,1.58-.65,2,2,0,0,1,1.54.64A2.53,2.53,0,0,1,18,7.09v.32H14.71a1.54,1.54,0,0,0,.36.91,1.12,1.12,0,0,0,.83.34,1,1,0,0,0,.63-.19A1.39,1.39,0,0,0,17,7.84l0-.09,1,.12ZM28.08,19.87H25.41l-.19-1.15H23.48l-.21,1.15H20.61l.85-3.38,1.44-5.67h3.15l1.34,6Zm7-2.71-.14,2.54a4.41,4.41,0,0,1-1.54.33,3.61,3.61,0,0,1-2.7-1.12,4.15,4.15,0,0,1-1.06-2h0c0-.24-.1-.48-.13-.73a6.56,6.56,0,0,1-.05-.79A5,5,0,0,1,30.62,12a3.9,3.9,0,0,1,3.07-1.29,3.82,3.82,0,0,1,1.27.22v2.58a1.71,1.71,0,0,0-1.18-.54,1.41,1.41,0,0,0-1.23.64,3.06,3.06,0,0,0-.45,1.78,4.07,4.07,0,0,0,.11,1,2.37,2.37,0,0,0,.31.72s0,0,0,0a1.37,1.37,0,0,0,.51.45,1.41,1.41,0,0,0,.69.16A1.91,1.91,0,0,0,35,17.16l.09-.07Zm6.81-2,1.17,2.36,1.14,2.32H41.41l-1-2.45-.71-1.72,0,1.69,0,2.48H37.18v-9h2.58l-.07,3.88,1.53-3.88h2.71Zm8.94,2.75-.1,1.76a4.36,4.36,0,0,1-1.54.33,3.61,3.61,0,0,1-2.7-1.12,3.79,3.79,0,0,1-.8-1.23h0A5.4,5.4,0,0,1,45.29,16h0c0-.2,0-.42,0-.64A5,5,0,0,1,46.41,12a4.16,4.16,0,0,1,4.35-1.07v2.58a1.75,1.75,0,0,0-1.18-.54,1.42,1.42,0,0,0-1.24.64,3.06,3.06,0,0,0-.45,1.78,3.6,3.6,0,0,0,.12,1,2.39,2.39,0,0,0,.31.74,1.37,1.37,0,0,0,.51.45,1.47,1.47,0,0,0,.7.16,2.06,2.06,0,0,0,1.34-.58Zm6.29,1.93-.19-1.15H55.18L55,19.87H52.31L52.78,18l1.82-7.21h3.16l1.68,7.54.34,1.51ZM66.22,13H64.74v6.88H62.17V13H60.74V10.82h5.48Z"/><path class="cls-1" d="M56.53,16.23l-.08-.5v0a1.13,1.13,0,0,1,0-.14c0-.09,0-.43-.13-1q0-.11,0-.27c0-.12,0-.26-.05-.44L56.14,13v0l0,.18a.38.38,0,0,1,0,.1s0,.08,0,.11l0,.22c0,.18,0,.3-.05.4s0,.08,0,.11a1.13,1.13,0,0,1,0,.14v0l-.13.82-.05.27-.26,1.42h1.09Z"/><path class="cls-1" d="M16.7,5.92a1.1,1.1,0,0,0-1.61-.08,1.14,1.14,0,0,0-.34.71h2.18A1.14,1.14,0,0,0,16.7,5.92Z"/></g></g></svg>